<svg width="24" height="25" viewBox="0 0 24 25" fill="none" xmlns="http://www.w3.org/2000/svg">
<path fill-rule="evenodd" clip-rule="evenodd" d="M2.87868 3.37868C2 4.25736 2 5.67157 2 8.5V16.5C2 19.3284 2 20.7426 2.87868 21.6213C3.75736 22.5 5.17157 22.5 8 22.5H16C18.8284 22.5 20.2426 22.5 21.1213 21.6213C22 20.7426 22 19.3284 22 16.5V8.5C22 5.67157 22 4.25736 21.1213 3.37868C20.2426 2.5 18.8284 2.5 16 2.5H8C5.17157 2.5 3.75736 2.5 2.87868 3.37868ZM17.8321 10.0547C18.1384 9.59517 18.0142 8.9743 17.5547 8.66795C17.0952 8.3616 16.4743 8.48577 16.1679 8.9453L13.1238 13.5115L12.6651 12.594C11.9783 11.2205 10.0639 11.1013 9.2121 12.3791L6.16795 16.9453C5.8616 17.4048 5.98577 18.0257 6.4453 18.3321C6.90483 18.6384 7.5257 18.5142 7.83205 18.0547L10.8762 13.4885L11.3349 14.406C12.0217 15.7795 13.9361 15.8987 14.7879 14.6209L17.8321 10.0547Z" fill="#707070"/>
</svg>
