<svg width="20" height="20" viewBox="0 0 20 20" fill="none" xmlns="http://www.w3.org/2000/svg">
<path d="M10 16.6666L4.01308 9.18294C3.68056 8.76729 3.5143 8.55947 3.46963 8.30901C3.42496 8.05856 3.50912 7.80607 3.67745 7.30109L4.08834 6.0684C4.52836 4.74836 4.74836 4.08834 5.27214 3.71083C5.79591 3.33331 6.49163 3.33331 7.88308 3.33331H12.117C13.5084 3.33331 14.2042 3.33331 14.7279 3.71083C15.2517 4.08834 15.4717 4.74836 15.9117 6.0684L16.3226 7.30109C16.491 7.80607 16.5751 8.05856 16.5305 8.30901C16.4858 8.55947 16.3195 8.76729 15.987 9.18294L10 16.6666ZM10 16.6666L12.9167 7.49998M10 16.6666L7.08337 7.49998M16.25 8.33331L12.9167 7.49998M12.9167 7.49998L11.6667 4.16665M12.9167 7.49998H7.08337M8.33337 4.16665L7.08337 7.49998M7.08337 7.49998L3.75004 8.33331" stroke="#2752E7" stroke-width="1.5" stroke-linecap="round"/>
</svg>
