<svg width="24" height="25" viewBox="0 0 24 25" fill="none" xmlns="http://www.w3.org/2000/svg">
<path fill-rule="evenodd" clip-rule="evenodd" d="M15.3908 5.64182C18.0287 7.11892 19.8468 9.88587 19.9908 13.0886L13.8372 11.4398L15.3908 5.64182ZM12.555 4.63383L10.81 11.1463L10.7984 11.1897L10.7984 11.1897C10.7484 11.3754 10.6778 11.6373 10.6469 11.8775C10.6079 12.1802 10.5987 12.659 10.8804 13.1469C11.1621 13.6348 11.5813 13.8662 11.863 13.9838C12.0864 14.0771 12.3485 14.147 12.5344 14.1965L12.5778 14.2081L19.6203 16.0952C18.5063 19.8006 15.0684 22.5 11.0001 22.5C6.02952 22.5 2.00008 18.4706 2.00008 13.5C2.00008 8.52944 6.02952 4.5 11.0001 4.5C11.5304 4.5 12.0499 4.54586 12.555 4.63383Z" fill="#707070"/>
<path d="M14.0706 4.77259C14.3215 3.83602 14.447 3.36773 14.8792 3.17286C15.3113 2.97799 15.6928 3.16782 16.4556 3.54748C17.0297 3.83321 17.5764 4.17419 18.0876 4.56647C19.1295 5.3659 20.0036 6.36272 20.6603 7.5C21.3169 8.63728 21.743 9.89275 21.9144 11.1947C21.9986 11.8336 22.0205 12.4775 21.9809 13.1176C21.9283 13.9681 21.902 14.3933 21.5171 14.6701C21.1323 14.947 20.664 14.8215 19.7274 14.5706L13.9319 13.0176C13.0212 12.7736 12.5658 12.6516 12.3587 12.2929C12.1516 11.9342 12.2736 11.4788 12.5176 10.5681L14.0706 4.77259Z" fill="#707070"/>
</svg>
