<svg width="16" height="18" viewBox="0 0 16 18" fill="none" xmlns="http://www.w3.org/2000/svg">
<path d="M9.60861 16.5H4.29634C2.89958 16.5 2.20121 16.5 1.76729 16.0118C1.33337 15.5237 1.33337 14.738 1.33337 13.1667V4.83333C1.33337 3.26199 1.33337 2.47631 1.76729 1.98816C2.20121 1.5 2.89958 1.5 4.29634 1.5H11.7037C13.1005 1.5 13.7989 1.5 14.2328 1.98816C14.6667 2.47631 14.6667 3.26199 14.6667 4.83333V10.8096C14.6667 11.1503 14.6667 11.3206 14.6103 11.4737C14.5539 11.6269 14.4469 11.7473 14.2328 11.9882L10.6562 16.0118C10.4421 16.2527 10.335 16.3731 10.1989 16.4366C10.0628 16.5 9.91139 16.5 9.60861 16.5Z" stroke="#707070" stroke-width="1.5"/>
</svg>
